<svg xmlns:dc="http://purl.org/dc/elements/1.1/" xmlns:cc="http://creativecommons.org/ns#" xmlns:rdf="http://www.w3.org/1999/02/22-rdf-syntax-ns#" xmlns:svg="http://www.w3.org/2000/svg" xmlns="http://www.w3.org/2000/svg" xmlns:sodipodi="http://sodipodi.sourceforge.net/DTD/sodipodi-0.dtd" xmlns:inkscape="http://www.inkscape.org/namespaces/inkscape" width="100" height="100" viewBox="0 0 80 80" version="1.1" id="svg2" inkscape:version="0.48.2 r9819" sodipodi:docname="blank.svg">
  <metadata id="metadata10">
    <rdf:RDF>
      <cc:Work rdf:about="">
        <dc:format>image/svg+xml</dc:format>
        <dc:type rdf:resource="http://purl.org/dc/dcmitype/StillImage"/>
        <dc:title/>
      </cc:Work>
    </rdf:RDF>
  </metadata>
  <defs id="defs8">
    <inkscape:path-effect is_visible="true" id="path-effect5043" effect="spiro"/>
    <inkscape:path-effect is_visible="true" id="path-effect5065" effect="spiro"/>
  </defs>
  <sodipodi:namedview pagecolor="#ffffff" bordercolor="#666666" borderopacity="1" objecttolerance="10" gridtolerance="10" guidetolerance="10" inkscape:pageopacity="0" inkscape:pageshadow="2" inkscape:window-width="1366" inkscape:window-height="706" id="namedview6" showgrid="true" inkscape:zoom="6.379555" inkscape:cx="50.206554" inkscape:cy="48.717995" inkscape:window-x="-8" inkscape:window-y="-8" inkscape:window-maximized="1" inkscape:current-layer="svg2" inkscape:snap-grids="false">
    <inkscape:grid type="xygrid" id="grid3807"/>
  </sodipodi:namedview>
  <path d="m 58.187666,9.2182907 c 0.416049,1.0170073 0.808983,2.0571293 1.363715,2.9816813 0.115569,-0.808983 0.208024,-1.617967 0.277365,-2.4269499 0.231139,-0.069341 0.462277,-0.1386828 0.693415,-0.2080243 0.06934,0.4160486 0.18491,1.2250322 0.254252,1.6179672 0.09246,-0.508504 0.18491,-1.040122 0.300479,-1.5717396 0.09246,0 0.277366,0.023114 0.369821,0.023114 0.06934,0.6009587 0.161797,1.2250317 0.231138,1.8259907 0.06934,-0.600959 0.161797,-1.225032 0.254252,-1.8259907 0.115569,-0.023114 0.346707,-0.046228 0.462276,-0.046228 -0.04623,0.4391624 -0.09246,0.8783244 -0.138683,1.3174874 0.231139,-0.323594 0.462277,-0.670301 0.716529,-0.993894 0.416048,1.617967 -0.208025,3.39773 0.6703,4.900128 0.277366,-0.439163 0.577845,-0.855211 0.924552,-1.248146 -0.02311,0.832097 -0.254251,1.64108 -0.254251,2.473178 0.231138,-0.416049 0.462276,-0.855211 0.693414,-1.27126 0.369821,0.739642 0.693414,1.502398 1.109463,2.24204 0.577845,-1.571739 1.109463,-3.143479 1.479284,-4.784559 0.06934,-0.762756 0.947666,-0.878325 1.502397,-1.178804 0.02311,0.462276 0.02311,0.924552 0.04623,1.386828 0.508504,-0.208024 1.017008,-0.439162 1.525511,-0.600959 -0.231138,0.208024 -0.462276,0.439163 -0.716528,0.647187 0.762756,0.18491 1.155691,0.901438 1.525512,1.502398 0.277365,-0.11557 0.577845,-0.208025 0.855211,-0.30048 0.300479,2.195812 -2.519406,3.004795 -2.704316,5.061924 0.855211,-0.138682 1.710422,-0.277365 2.542519,-0.531617 0.161797,0.554731 0.161797,1.45617 0.901439,1.525511 2.010901,0.208025 4.114258,0.06934 5.963363,0.993894 0.18491,1.918446 0.439162,3.88312 0.277365,5.82468 -0.508504,1.248146 -2.034015,1.75665 -2.42695,3.097251 -0.392086,3.07088 -3.504287,9.16478 -4.645876,10.3781 C 60.69456,47.692841 45.087745,44.775388 42.608958,30.090061 42.07734,28.772574 40.390032,28.472094 39.165,28.934371 38.402245,29.165509 38.147993,30.02072 37.731944,30.621679 35.665227,47.927439 10.582326,48.780676 6.5283006,38.434147 4.5405129,35.984083 4.8872201,32.470784 2.9918876,29.974492 2.4371562,29.281078 1.5357176,28.934371 1.119669,28.125387 0.93475856,26.206941 0.91164475,24.242267 1.0734414,22.300707 1.7437419,21.584179 2.7838634,21.607293 3.6621881,21.399269 5.2801548,21.16813 6.8518939,20.775196 8.4467468,20.474716 7.0136906,19.71196 5.5112929,19.064774 3.8933262,18.718067 L 5.1645858,18.533156 C 5.0259029,18.371359 4.8872201,18.186449 4.7254234,18.024652 5.3726101,18.163335 6.0197968,18.325132 6.6438696,18.486928 5.9042277,17.978425 5.3263825,17.261897 5.0952444,16.383572 5.626862,16.753393 6.112252,17.169441 6.597642,17.58549 6.5283006,17.354352 6.4589591,17.123214 6.3896177,16.892076 c 0.6703005,0.508503 1.3868286,0.947666 2.0802429,1.409942 1.0170077,0.647187 1.9415604,1.687308 3.2590474,1.571739 -0.323594,-0.624073 -0.647187,-1.225032 -0.993894,-1.825991 0.369821,0.09246 0.739642,0.161797 1.109463,0.254252 -0.138683,-0.392935 -0.277366,-0.78587 -0.416049,-1.178804 0.739642,0.693414 1.433057,1.433056 2.172698,2.12647 0.161797,-1.15569 0.254252,-2.311381 0.208025,-3.490185 0.115569,0 0.300479,0 0.392935,0 0.115569,1.248146 0.18491,2.496291 0.277365,3.744437 0.554732,-1.248146 1.017008,-2.588747 2.103357,-3.467071 -0.115569,1.225032 -0.531618,2.403836 -0.808983,3.605754 0.18491,0.02311 0.531617,0.09246 0.693414,0.115569 -0.09246,-0.161797 -0.184911,-0.323593 -0.30048,-0.462276 1.132577,-0.531618 2.126471,-1.27126 3.282161,-1.75665 1.710422,-0.808983 2.265154,-2.773657 3.582641,-4.021803 0.02311,0.323594 0.04623,0.647187 0.06934,0.947667 0.577846,-0.48539 1.109463,-1.017008 1.687308,-1.502398 0.06934,0.300479 0.138683,0.624073 0.184911,0.947666 0.416049,-0.18491 0.808983,-0.392935 1.201918,-0.600959 -0.600959,0.993894 -1.271259,1.94156 -1.849105,2.958568 1.109463,-1.063236 2.218926,-2.126471 3.467072,-3.074137 -0.231138,0.577845 -0.531618,1.132577 -0.832097,1.687308 0.462276,-0.323593 0.947666,-0.6703 1.433056,-0.993894 -0.254252,0.647187 -0.508504,1.27126 -0.78587,1.895333 0.647187,-0.739642 1.27126,-1.479284 1.964674,-2.149585 -0.04623,0.624073 -0.06934,1.27126 -0.06934,1.918447 0.462276,-0.254252 0.924552,-0.508504 1.409942,-0.739642 -0.300479,0.554731 -0.600959,1.109463 -0.924552,1.664194 0.115569,0.04623 0.231138,0.09246 0.369821,0.138683 0.947666,-0.624073 2.057129,-0.947666 3.189705,-1.063235 -0.624072,0.762755 -1.363714,1.409942 -2.103356,2.057129 1.15569,-0.48539 2.218926,-1.155691 3.443957,-1.386829 -1.64108,1.964674 -3.628868,3.536413 -5.685997,5.015697 0.832097,0.138683 1.733536,0.06934 2.519405,0.392935 3.952462,2.288267 8.806362,2.496291 13.197986,1.502397 0.762756,-0.115569 1.340601,-0.647186 1.710422,-1.294373 0.832097,-0.30048 1.617967,-0.693414 2.473178,-0.947666 -1.617967,-2.057129 -4.276055,-2.565633 -6.286957,-4.091145 1.178805,0.161797 2.334495,0.392935 3.536413,0.392935 -1.201918,-0.693414 -2.519405,-1.178804 -3.628868,-2.010901 -0.416049,-0.277366 -0.300479,-0.832098 -0.392935,-1.248146 0.670301,0.09246 1.317487,0.231138 1.987788,0.369821 -0.462276,-0.346707 -0.947666,-0.693414 -1.409942,-1.017008 0.48539,-0.254252 0.993893,-0.508504 1.479283,-0.785869 -0.02311,0.138683 -0.02311,0.369821 -0.04623,0.48539 0.18491,-0.02311 0.531617,-0.06934 0.716528,-0.09246 -0.392935,-0.416048 -0.808983,-0.808983 -1.225032,-1.201918 0.161797,-0.115569 0.323593,-0.208024 0.462276,-0.323593 0.878325,0.231138 1.802877,0.346707 2.658088,0.647187 -0.04623,-0.231138 -0.06934,-0.462277 -0.115569,-0.670301 2.057129,0.878325 4.137372,1.710422 6.102046,2.773657 -0.600959,-1.340601 -1.918446,-2.380722 -2.010901,-3.929347 1.294373,0.716528 2.172698,1.918446 3.09725,3.051023 -0.369821,-1.155691 -0.785869,-2.288268 -1.15569,-3.4439581 1.086349,0.3004791 2.334494,0.6703001 2.634974,1.9415601 0.739642,0.323593 0.993894,1.132577 1.340601,1.779763 0.04623,-0.508503 0.09246,-1.017007 0.138683,-1.525511 0.346707,0.647187 0.624073,1.294373 0.901438,1.964674 -0.300479,-1.594853 -0.531617,-3.259047 0.30048,-4.7383313 m 2.103357,14.7928383 c -3.374617,0.323593 -6.79546,0.554732 -10.123849,1.363715 -1.363715,0.462276 -2.958568,1.017008 -3.582641,2.42695 -0.855211,1.918446 -0.346707,4.114258 0.416049,5.963363 0.647187,2.42695 1.733536,4.992583 4.044917,6.286956 3.328388,2.103357 7.46576,1.918446 11.210197,1.779764 3.536413,-0.138683 7.257737,-1.201919 9.592232,-4.021803 1.849104,-3.305275 2.12647,-7.303964 1.294373,-10.955946 -0.323593,-1.109463 -1.479284,-1.664195 -2.403836,-2.218926 -3.328389,-1.225032 -6.980371,-0.808983 -10.447442,-0.624073 m -40.426054,0.878325 c -3.328389,0.208024 -6.726119,0 -9.9620522,0.901438 -1.2712595,0.346708 -2.311381,1.27126 -2.8661124,2.42695 -0.9476662,2.565633 0.1617967,5.131266 0.7627557,7.58133 0.6471867,2.796771 2.7043159,5.33929 5.5704279,5.963363 3.767551,0.924553 7.743127,0.901439 11.603133,0.48539 2.796771,-0.208024 5.593542,-1.64108 7.165281,-4.021803 1.641081,-2.819885 2.565633,-6.31007 1.733536,-9.522889 -0.462276,-1.802878 -2.334495,-2.565633 -3.952462,-3.02791 -3.282161,-0.739642 -6.703005,-0.97078 -10.054507,-0.785869 z" id="path4" style="fill:#000000;stroke:none" inkscape:connector-curvature="0" sodipodi:nodetypes="cccccccccccccccccccccccccccccccccccccccccccccccccccccccccccccccccccccccccccccccccccccccccccccccccccccccccccccccccccccccccccccc"/>
  <path style="fill:#000000;stroke:none" d="m 31.7257,56.079412 c -1.349291,1.033737 -2.476728,2.329211 -3.865784,3.311053 -1.222589,0.957256 -2.637416,1.608377 -3.860007,2.565633 0.554325,-0.136439 1.107124,-0.273633 1.658416,-0.387156 -1.127898,0.946478 -2.639964,1.630452 -3.183927,3.09725 0.642945,-0.101389 1.245827,-0.254642 1.877997,-0.450719 -0.865383,0.724768 -1.590147,1.63091 -1.721979,2.802549 0.546586,-0.254041 1.091464,-0.532029 1.641081,-0.808983 -0.390578,0.484537 -0.799782,0.942741 -1.190362,1.427278 0.206224,0.02731 0.418048,0.03322 0.647187,0.06356 0.691177,-0.817783 1.773574,-0.740153 2.738987,-0.63563 -0.04385,0.507138 -0.0108,1.000548 -0.0058,1.490841 0.828977,-0.449802 1.49698,-1.11082 2.16692,-1.768207 -0.492696,0.727489 -0.960927,1.436489 -1.473506,2.138028 0.3774,0.143236 0.751276,0.311851 1.149912,0.294701 0.616686,-0.431283 0.990693,-1.129031 1.485063,-1.693087 -0.489347,1.054348 -0.889212,2.142831 -1.132577,3.276383 0.316086,-0.09804 0.608467,-0.20244 0.924552,-0.30048 0.296523,0.22579 0.590327,0.455869 0.889882,0.658744 0.541873,-0.394558 1.177466,-0.618175 1.843327,-0.716528 l -0.728086,0.74542 c 0.13309,0.227465 0.245545,0.454593 0.3756,0.704971 l 1.126798,-1.109463 c -0.152338,0.446138 -0.327273,0.888685 -0.479611,1.334823 0.796959,-0.384094 1.535665,-0.873194 2.236261,-1.409943 -0.0098,0.954635 -0.163332,1.962617 0.277365,2.860334 0.320164,-0.657072 0.682946,-1.284577 1.0459,-1.912667 -0.0058,0.395602 -0.03469,0.765866 -0.04045,1.161469 0.807421,-0.639181 1.575844,-1.334215 2.363387,-1.999345 -0.558087,1.045248 -1.052806,2.123912 -1.502397,3.230155 1.260673,-1.06879 2.452659,-2.659845 4.270276,-2.65231 0.231859,-0.342345 0.464301,-0.709531 0.699193,-1.074792 -0.06069,0.458278 -0.118648,0.920031 -0.202246,1.375272 0.642631,-0.451161 1.225663,-0.979171 1.808656,-1.508176 -0.277368,0.686055 -0.554325,1.370783 -0.78587,2.062907 0.831695,-0.822493 1.581918,-1.725735 2.288267,-2.658088 0.0249,0.51624 0.05042,1.02935 0.09823,1.548625 0.116158,-0.224643 0.235936,-0.446473 0.358264,-0.6703 l -0.06356,0.468054 c 0.272382,0.291329 0.563986,0.570574 0.866768,0.832098 -0.02475,-0.375949 -0.06182,-0.750074 -0.09246,-1.126799 0.02713,-0.03684 0.05469,-0.07268 0.0809,-0.10979 l 0.693414,1.190361 c 0.190742,-0.207899 0.355472,-0.398639 0.543175,-0.583624 L 47.044378,70.23662 c 0.617314,0.268268 1.174348,0.645255 1.594853,1.167248 0.342036,-0.117918 0.683501,-0.257881 1.028564,-0.398714 0.279677,0.17693 0.540866,0.348913 0.820541,0.52584 0.06005,-1.157827 -0.04463,-2.31014 -0.242695,-3.455515 0.330527,0.673289 0.504935,1.439755 0.988115,2.01668 0.38043,0.120321 0.788689,0.0574 1.190361,0.01734 -0.312321,-0.810772 -0.580397,-1.613635 -0.866768,-2.444285 0.475752,0.809094 0.951968,1.615094 1.635302,2.265153 0.132461,-0.472085 0.285937,-0.937764 0.3756,-1.438834 0.959345,0.15035 2.030224,0.359551 2.484734,1.329044 0.229141,0.03034 0.429409,0.08248 0.63563,0.10979 -0.251007,-0.569496 -0.523306,-1.117811 -0.774312,-1.687308 0.458591,0.41046 0.913649,0.820152 1.375271,1.207697 0.17766,-1.16557 -0.289184,-2.230009 -0.936109,-3.155035 0.559347,0.353854 1.10447,0.659319 1.698865,0.924552 -0.143449,-1.557822 -1.428246,-2.612138 -2.270932,-3.819557 0.502744,0.253099 1.002689,0.527194 1.502398,0.803205 -0.931306,-1.242469 -2.125493,-2.241938 -3.056802,-3.484407 -0.276635,-0.490898 -2.040912,-3.431206 -2.727429,-3.345724 -1.463613,0.485291 -3.008198,1.013635 -4.120037,2.103357 -1.327696,-0.01223 -2.627199,0.241627 -3.848449,0.751199 -2.702569,1.041066 -5.724829,1.524529 -8.453876,0.300479 -0.71326,-1.656592 -2.257535,-2.701057 -3.715545,-3.663539 0.128069,-0.262827 0.23598,-0.523042 0.364042,-0.785869 z" id="path8" inkscape:connector-curvature="0"/>
</svg>